<?xml version="1.0" encoding="UTF-8" standalone="no"?>
<svg
   xmlns:dc="http://purl.org/dc/elements/1.1/"
   xmlns:cc="http://creativecommons.org/ns#"
   xmlns:rdf="http://www.w3.org/1999/02/22-rdf-syntax-ns#"
   xmlns:svg="http://www.w3.org/2000/svg"
   xmlns="http://www.w3.org/2000/svg"
   xmlns:sodipodi="http://sodipodi.sourceforge.net/DTD/sodipodi-0.dtd"
   xmlns:inkscape="http://www.inkscape.org/namespaces/inkscape"
   sodipodi:docname="menu-chat.svg"
   inkscape:version="1.0 (4035a4fb49, 2020-05-01)"
   id="svg915"
   version="1.1"
   viewBox="0 0 16.933333 16.933334"
   height="64"
   width="64">
  <defs
     id="defs909" />
  <sodipodi:namedview
     inkscape:window-maximized="1"
     inkscape:window-y="36"
     inkscape:window-x="0"
     inkscape:window-height="1015"
     inkscape:window-width="1920"
     units="px"
     showgrid="false"
     inkscape:document-rotation="0"
     inkscape:current-layer="layer1"
     inkscape:document-units="mm"
     inkscape:cy="102.99006"
     inkscape:cx="-136.28803"
     inkscape:zoom="1.4"
     inkscape:pageshadow="2"
     inkscape:pageopacity="0.0"
     borderopacity="1.0"
     bordercolor="#666666"
     pagecolor="#ffffff"
     id="base" />
  <metadata
     id="metadata912">
    <rdf:RDF>
      <cc:Work
         rdf:about="">
        <dc:format>image/svg+xml</dc:format>
        <dc:type
           rdf:resource="http://purl.org/dc/dcmitype/StillImage" />
        <dc:title></dc:title>
      </cc:Work>
    </rdf:RDF>
  </metadata>
  <g
     id="layer1"
     inkscape:groupmode="layer"
     inkscape:label="Layer 1">
    <path
       d="m 5.8434091,2.3750751 c -1.7042299,0 -3.0762779,1.3719687 -3.0762779,3.0761988 v 1.7952306 c 0,0.2181721 0.022865,0.4307724 0.065654,0.6358738 H 2.7671312 L 0.65467903,10.322703 h 5.18873007 1.901819 1.831078 c 1.7042299,0 3.0762779,-1.3719688 3.0762779,-3.0761985 V 5.4512739 c 0,-1.7042301 -1.372048,-3.0761988 -3.0762779,-3.0761988 z m 7.3896479,4.2363505 v 1.2773113 c 0,1.7042298 -1.372048,3.0761981 -3.076278,3.0761981 H 6.9129489 6.393122 v 0.517124 c 0,0.218173 0.022865,0.430773 0.065654,0.635874 H 6.393122 l -2.1124521,2.440325 h 5.18873 1.9018181 1.831158 c 1.70423,0 3.076278,-1.371968 3.076278,-3.076199 v -1.79523 c 0,-1.6939355 -1.355688,-3.0589668 -3.045597,-3.0754034 z"
       style="fill:#ffffff;fill-opacity:1;stroke:none;stroke-width:1.05833;stroke-linejoin:bevel;paint-order:markers fill stroke"
       id="path1520" />
  </g>
</svg>
