<svg xmlns="http://www.w3.org/2000/svg" width="1024" height="768" viewBox="0 0 270.933 203.2"><path d="M51.829 27.231L39.016 47.485l3.79 1.896-7.56 11.117 6.371.455-8.821 15.68 5.257 3.346-14.276 20.492 7.097 1.978-12.376 18.977 5.14 1.87-9.575 15.046 5.983.5-17.234 20.27 10.016 2.75 31.366 2.43-1.009 11.677h17.192l-1.005-11.629 31.041-3.654 11.164.688-17.972-22.54 5.894-.492-9.574-15.046 5.156-1.876-13.468-21.162 7.862-.232L65.51 79.98l5.224-3.326-7.827-12.925 5.725-2.634-9.45-12.562 4.894-1.253-6.933-7.974 1.55-2.204zm167.607.099l-12.54 19.823 3.71 1.856-7.398 10.88 6.234.444-8.633 15.345 5.145 3.274-13.97 20.055 6.945 1.936-12.114 18.573 5.03 1.829-9.37 14.726 5.856.488-16.866 19.84 9.803 2.69 30.697 2.377-.989 11.428h16.825l-.984-11.38 30.38-3.578 10.925.674-17.588-22.058 5.769-.48-9.371-14.727 5.047-1.835-13.18-20.711 7.693-.227-13.668-19.62 5.113-3.255-7.66-12.65 5.604-2.576-9.25-12.294 4.79-1.226-6.785-7.804 1.517-2.157zm-20.19 11.522l-1.963 2.825.57.812-2.26 2.6 1.7.435-3.43 4.558 2 .92-2.819 4.654 1.884 1.199-.85 1.218 1.32 2.087-2.476 1.239 5.596 8.23-4.513.322 3.63 6.454 7.841-13.94-6.614-.472 5.607-8.245-2.196-3.906 2.21-.158-2.568-3.775 1.365-.683zm-99.699 3.444l-1.964 2.825.571.812-2.261 2.6 1.7.436-3.43 4.557 2 .92-2.818 4.655 1.883 1.2-.651.934 5.902 9.328-1.667.834 2.15 3.16 1.46-2.41-2.18-1.002 3.173-4.217-1.893-.485 3.165-3.64-.492-.7.496-.712-.76-1.09 1.905-1.214-3.264-5.8 2.21-.158-2.567-3.776 1.365-.682zm84.933 3.68l-4.583 6.592 1.035 1.472-4.63 5.325 3.269.836-6.312 8.389 3.824 1.759-1.36 2.246-.414.683-3.452 5.702 3.488 2.22-6.969 10.004-2.357 3.384 2.768.082-.247-.355.778-.6-.04.131.61-.471-.004-.007-.18.05.136-.106 1.211 1.424.217.006-2.065 3.245-.009.015-6.919 10.872 3.444 1.252-6.394 10.048 3.936.328-12 15.05 7.453-.458 20.026 2.358 9.461-14.868-5.063-1.842 11.976-18.361-7.05-1.966 9.501-13.637-3.886-5.579 3.51-2.234-5.89-10.47 4.253-.303-5.048-7.424 2.532-1.266-2.013-3.183-.219-.139.064-.105zm-33.151 1.757l-1.964 2.825.57.812-2.26 2.6 1.7.435-3.43 4.558 2 .92-2.819 4.655 1.884 1.198-4.465 6.41.284.503 2.146.063-1.12 1.762.078.138-.28.178-1.366 2.148 5.526 7.932 2.77-4.575-2.736-1.259 4.054-5.388-2.372-.607 3.888-4.473-.633-.901 1.892-2.722 1.757-2.527-2.079-3.695 2.21-.157-2.567-3.776 1.365-.682zm-70.36 3.065l-1.683 2.42.521.742L77.8 56.27l1.532.392-3.12 4.147 1.804.83-2.561 4.229 1.711 1.09-4.318 6.197 2.503.074-1.954 3.07.69 1.139-2.377 1.513-.828 1.3 1.666.607-1.635 2.57 7.274 10.442.25.03 2.183-3.134-1.55.095 4.915-6.162-1.688-1.074 3.433-5.67-2.736-1.258 4.054-5.388-2.373-.607 1.538-1.77-1.376-1.975 1.733-1.103-2.982-5.3 1.991-.143-2.3-3.384 1.238-.62zm38.897.953l-1.964 2.825.571.813-2.261 2.6 1.7.435-3.43 4.558 2 .92-2.502 4.131.869 1.278.698.443-.2.288.546.804.474.697-2.173.155-.171.245 2.628 4.672-1.772 1.129 4.654 6.68 5.833-8.372-2.285-1.454 2.113-3.489-.944-1.354 1.704-1.085-2.176-1 1.079-1.435-1.966-3.493 2.21-.158-2.566-3.775 1.364-.683zm13.62.57l-2.765 3.975.713 1.013-2.985 3.433 2.18.558-3.812 5.066-.498.662 1.175.54 1.381.637-.53.876.006.013-.023.015-1.174 1.938-1.833 3.027 2.374 1.511-6.185 8.879 3.526.104-4.445 6.985-.683 1.072-1.027 1.615 2.329.847-4.266 6.704 2.72.226-5.11 6.41-2.68 3.36.193.303 4.01-.247 14.3 1.684-.452 5.22h7.184l-.454-5.253 2.308-.178 3.83-6.017-2.33-.848 5.702-8.96-3.673-.107 3.5-5.023.476-.685-3.93-6.026 3.194-.89-6.391-9.175 2.395-1.524-4.066-7.228 2.834-.202-3.325-4.89 1.721-.861zm-25.32 6.952l-.187.27.054.095-.217.139-1.614 2.32.571.813-2.261 2.6 1.7.435-3.43 4.558 2 .92-2.804 4.63.042.061 1.827 1.163-2.366 3.396 1.668 2.965-1.588 1.01-.465.731 6.526 9.369-3.265.91 5.511 8.45-2.34.85 3.212 5.047-.252-2.913 3.225-.25 2.745-3.442-2.362-.196 4.627-7.271-2.329-.848 2.528-3.972-3.877-5.945 2.514-.7-5.01-7.191 1.906-1.213-2.371-4.214-.893-1.586 2.102-.15.108-.009-2.567-3.775 1.365-.682zm62.179 1.504l-1.964 2.825.57.812-2.26 2.6 1.699.436-3.429 4.558 2 .92-1.812 2.991 2.39 3.515-2.07.147-.59.846 3.123 5.55-1.515.965.505.795-.974.08 1.356 1.948 5.642-8.098-3.4-2.164 4.202-6.938-.45-.797.975-.07.38-.626-4.004-1.84 2.702-3.592zm-77.644.57l-2.764 3.975.713 1.013-2.985 3.433 2.18.558-4.31 5.728 2.556 1.176-3.554 5.87 2.374 1.511-4.197 6.025-1.988 2.854 3.526.104-2.987 4.694 2.833 4.067-5.524.162-.477.749 2.33.847-1.721 2.704 9.944 15.624.943.111-.451 5.22h7.184l-.455-5.252 14.408-1.115 4.097-1.125-5.4-6.353-.959.06.488-.612-.43-.506-1.548-1.82 2.78-.232-4.266-6.704 2.318-.843-5.605-8.594 3.194-.89-5.545-7.96-.236-.339-.934-1.34 1.006.03 1.713-1.09-.515-.916-.895-1.591-2.656-4.72 2.835-.203-3.326-4.89 1.722-.861zm64.853 2.34l-2.764 3.975.713 1.014-2.985 3.433 2.179.557-4.31 5.728 2.558 1.176-3.555 5.87 2.374 1.511-3.313 4.755-1.014 1.456-1.857 2.668 3.526.104-6.155 9.672 2.328.847-4.265 6.704.045.004.018.001 2.656.221-8.053 10.1 4.467-.274 14.3 1.683-.391 4.517 6-7.524-3.58-.298 6.756-10.616-3.444-1.252 7.46-11.722-.64-.982 1.537-.428.182-.286-5.395-.159 2.757-3.958.683-.98-2.962-4.253.852-.542.648-.413.694-.442.201-.128-4.066-7.227 2.834-.203-3.324-4.89 1.72-.86zm40.177 12.887l1.655 2.943-3.377 2.15 2.558 3.673 3.974-5.704zm-97.014.66l-1.126.08.994 1.768.932-1.338-.406-.259-.07.115-.19-.28zm17.779 8.679l-.848.236 2.243 3.44 2.205-3.463-3.673-.109zm28.772.126l-2.127.593 2.341 3.589 1.953-2.803zm-68.234 9.046l1.212 1.741 1.066-1.674zm100.35 43.147l-.495 5.713 4.569-5.373z" fill="#173d10"/></svg>
