<?xml version="1.0" encoding="UTF-8" standalone="no"?>
<svg
   xmlns:dc="http://purl.org/dc/elements/1.1/"
   xmlns:cc="http://creativecommons.org/ns#"
   xmlns:rdf="http://www.w3.org/1999/02/22-rdf-syntax-ns#"
   xmlns:svg="http://www.w3.org/2000/svg"
   xmlns="http://www.w3.org/2000/svg"
   xmlns:sodipodi="http://sodipodi.sourceforge.net/DTD/sodipodi-0.dtd"
   xmlns:inkscape="http://www.inkscape.org/namespaces/inkscape"
   sodipodi:docname="menu-map.svg"
   inkscape:version="1.0 (4035a4fb49, 2020-05-01)"
   id="svg8"
   version="1.1"
   viewBox="0 0 16.933333 16.933334"
   height="64"
   width="64">
  <defs
     id="defs2" />
  <sodipodi:namedview
     inkscape:window-maximized="1"
     inkscape:window-y="36"
     inkscape:window-x="0"
     inkscape:window-height="1015"
     inkscape:window-width="1920"
     units="px"
     showgrid="false"
     inkscape:document-rotation="0"
     inkscape:current-layer="layer1"
     inkscape:document-units="mm"
     inkscape:cy="36.959726"
     inkscape:cx="49.832325"
     inkscape:zoom="7.9195959"
     inkscape:pageshadow="2"
     inkscape:pageopacity="0.0"
     borderopacity="1.0"
     bordercolor="#666666"
     pagecolor="#ffffff"
     id="base" />
  <metadata
     id="metadata5">
    <rdf:RDF>
      <cc:Work
         rdf:about="">
        <dc:format>image/svg+xml</dc:format>
        <dc:type
           rdf:resource="http://purl.org/dc/dcmitype/StillImage" />
        <dc:title></dc:title>
      </cc:Work>
    </rdf:RDF>
  </metadata>
  <g
     id="layer1"
     inkscape:groupmode="layer"
     inkscape:label="Layer 1">
    <path
       d="m 8.9150951,1.8441575 c -1.6210981,2e-7 -2.9352478,1.3159217 -2.9352478,2.9391274 0,1.6232061 2.9352478,6.1385821 2.9352478,6.1385821 0,0 2.9352479,-4.515376 2.9352479,-6.1385821 0,-1.6232057 -1.314147,-2.9391274 -2.9352479,-2.9391274 z m 0,1.5302808 c 0.8259308,-7.9e-6 1.4954999,0.6704288 1.4954929,1.4974328 7e-6,0.827004 -0.6695621,1.4974409 -1.4954929,1.4974329 C 8.0891638,6.369312 7.419592,5.6988748 7.419602,4.8718711 7.419592,4.0448673 8.0891638,3.3744306 8.9150951,3.3744383 Z m 2.7988119,4.3318082 -0.182863,0.073327 -0.520008,0.2089861 C 10.667229,8.6498604 10.299385,9.3005231 9.968691,9.8630983 l 0.088716,0.6643327 -0.6153198,0.212478 c -0.3160155,0.514882 -0.5269915,0.83905 -0.5269915,0.83905 0,0 -0.2628289,-0.405459 -0.6365284,-1.019455 L 8.1926957,11.061666 7.4409406,10.872078 7.8662839,9.8711168 C 7.7280699,9.6360862 7.5831492,9.3834713 7.4361553,9.1229822 l -0.6706701,1.5769668 -2.544174,0.192174 2.230307,-2.3500607 0.8897433,0.412153 C 7.1577959,8.6255178 6.9732981,8.286426 6.7951004,7.9422617 L 6.2928091,7.7096096 6.1227492,7.8889804 0.61216002,13.69572 l 4.49346308,1.287412 -0.017718,0.04151 0.08018,-0.02392 0.3084363,0.08846 2.5846521,-0.797148 2.9952535,0.746324 5.264747,-1.781556 z m -0.209245,0.825987 1.121749,1.3514273 -1.898852,0.4556062 -0.189717,-1.4178995 z m 1.605159,1.9433395 0.06014,0.06311 0.08703,0.104617 -2.398428,0.678429 -0.0397,-0.29628 z m 0.628122,0.746971 1.410139,1.698918 -3.904912,1.281075 -0.292788,-2.191122 z m -3.587682,0.0014 0.04099,0.305462 -1.4667833,0.508886 0.058712,-0.34219 z m -3.7093767,0.239504 -0.062981,0.148592 -3.0094791,0.178854 0.1637227,-0.172517 z m 0.726796,0.04979 0.9086248,0.229289 -0.058584,0.344647 -0.9448349,-0.350465 z m 3.1169467,0.712699 0.263561,1.976576 -2.1038295,-0.524406 0.1476871,-0.865172 z M 6.0767102,12.319851 5.2336528,14.30328 1.8928475,13.346288 2.674865,12.522112 Z m 0.726408,0.05121 1.0967903,0.406203 -0.1519546,0.889098 -1.7132733,0.511731 z"
       style="color:#000000;font-style:normal;font-variant:normal;font-weight:normal;font-stretch:normal;font-size:medium;line-height:normal;font-family:sans-serif;font-variant-ligatures:normal;font-variant-position:normal;font-variant-caps:normal;font-variant-numeric:normal;font-variant-alternates:normal;font-variant-east-asian:normal;font-feature-settings:normal;font-variation-settings:normal;text-indent:0;text-align:start;text-decoration:none;text-decoration-line:none;text-decoration-style:solid;text-decoration-color:#000000;letter-spacing:normal;word-spacing:normal;text-transform:none;writing-mode:lr-tb;direction:ltr;text-orientation:mixed;dominant-baseline:auto;baseline-shift:baseline;text-anchor:start;white-space:normal;shape-padding:0;shape-margin:0;inline-size:0;clip-rule:nonzero;display:inline;overflow:visible;visibility:visible;isolation:auto;mix-blend-mode:normal;color-interpolation:sRGB;color-interpolation-filters:linearRGB;solid-color:#000000;solid-opacity:1;vector-effect:none;fill:#ffffff;fill-opacity:1;fill-rule:nonzero;stroke:none;stroke-width:2.15801;stroke-linecap:butt;stroke-linejoin:miter;stroke-miterlimit:4;stroke-dasharray:none;stroke-dashoffset:0;stroke-opacity:1;color-rendering:auto;image-rendering:auto;shape-rendering:auto;text-rendering:auto;enable-background:accumulate;stop-color:#000000"
       id="path1572" />
  </g>
</svg>
